<svg width="32" height="32" viewBox="0 0 32 32" fill="none" xmlns="http://www.w3.org/2000/svg">
  <!-- Blue background -->
  <rect width="32" height="32" rx="6" fill="#007AFF"/>
  
  <!-- Calculator body -->
  <rect x="6" y="6" width="20" height="20" rx="2" fill="white"/>
  
  <!-- Calculator screen -->
  <rect x="8" y="8" width="16" height="4" rx="1" fill="#007AFF"/>
  
  <!-- Calculator buttons (simplified grid) -->
  <rect x="8" y="14" width="3" height="3" rx="0.5" fill="#E5E7EB"/>
  <rect x="12.5" y="14" width="3" height="3" rx="0.5" fill="#E5E7EB"/>
  <rect x="17" y="14" width="3" height="3" rx="0.5" fill="#FFD700"/>
  
  <rect x="8" y="18.5" width="3" height="3" rx="0.5" fill="#E5E7EB"/>
  <rect x="12.5" y="18.5" width="3" height="3" rx="0.5" fill="#E5E7EB"/>
  <rect x="17" y="18.5" width="3" height="3" rx="0.5" fill="#FFD700"/>
  
  <rect x="21.5" y="18.5" width="2.5" height="7" rx="0.5" fill="#10B981"/>
  
  <!-- Crown symbol for Swedish context -->
  <path d="M23 4L24 2L25 4L26 2V6L25 4L24 6L23 4V6Z" fill="#FFD700"/>
</svg>